<svg width="25" height="25" viewBox="0 0 25 25" fill="none" xmlns="http://www.w3.org/2000/svg">
<g clip-path="url(#clip0_20_42)">
<path d="M12.548 8.46777C11.4625 8.46778 10.4214 8.89963 9.65386 9.66832C8.8863 10.437 8.45508 11.4796 8.45508 12.5667C8.45508 13.6538 8.8863 14.6964 9.65386 15.4651C10.4214 16.2338 11.4625 16.6656 12.548 16.6656C13.6335 16.6656 14.6745 16.2338 15.4421 15.4651C16.2096 14.6964 16.6408 13.6538 16.6408 12.5667C16.6408 11.4796 16.2096 10.437 15.4421 9.66832C14.6745 8.89963 13.6335 8.46778 12.548 8.46777ZM12.5014 10.153C13.1529 10.153 13.7778 10.4122 14.2386 10.8736C14.6993 11.335 14.9581 11.9608 14.9581 12.6133C14.9581 13.2659 14.6993 13.8917 14.2386 14.3531C13.7778 14.8145 13.1529 15.0737 12.5014 15.0737C11.8498 15.0737 11.2249 14.8145 10.7642 14.3531C10.3035 13.8917 10.0446 13.2659 10.0446 12.6133C10.0446 11.9608 10.3035 11.335 10.7642 10.8736C11.2249 10.4122 11.8498 10.153 12.5014 10.153Z" fill="white"/>
<path d="M15.5339 9.90689L12.5116 9.91866L9.48926 9.93043L10.995 5.01508L12.5007 0.0997314L14.0173 5.00331L15.5339 9.90689Z" fill="white" stroke="white" stroke-width="1.09137"/>
<path d="M15.5338 15.0933L12.5115 15.0815L9.48926 15.0696L10.995 20.0103L12.5007 24.9509L14.0172 20.0221L15.5338 15.0933Z" fill="white" stroke="white" stroke-width="1.09416"/>
<path d="M15.153 15.7489L15.1466 12.7221L15.1401 9.6953L20.0456 11.2118L24.951 12.7284L20.052 14.2386L15.153 15.7489Z" fill="white" stroke="white" stroke-width="1.09137"/>
<path d="M9.84673 15.7489L9.8532 12.7221L9.85967 9.6953L4.9542 11.2118L0.0487226 12.7284L4.94773 14.2386L9.84673 15.7489Z" fill="white" stroke="white" stroke-width="1.09137"/>
<path d="M15.5338 9.90669L12.5115 9.91852L9.48926 9.93035L10.995 4.98974L12.5007 0.0491333L14.0172 4.97791L15.5338 9.90669Z" fill="white" stroke="white" stroke-width="1.09416"/>
</g>
<defs>
<clipPath id="clip0_20_42">
<rect width="25" height="25" fill="white"/>
</clipPath>
</defs>
</svg>
